TITLE ""
FILE "DISC1Track07.mp3" MP3
  TRACK 01 AUDIO
    TITLE "DISC1Track07_01"
    INDEX 01 00:00:00
  TRACK 02 AUDIO
    TITLE "DISC1Track07_02"
    INDEX 01 00:01:22
  TRACK 03 AUDIO
    TITLE "DISC1Track07_03"
    INDEX 01 00:01:33
  TRACK 04 AUDIO
    TITLE "DISC1Track07_04"
    INDEX 01 00:04:10
  TRACK 05 AUDIO
    TITLE "DISC1Track07_05"
    INDEX 01 00:06:38
  TRACK 06 AUDIO
    TITLE "DISC1Track07_06"
    INDEX 01 00:08:37
  TRACK 07 AUDIO
    TITLE "DISC1Track07_07"
    INDEX 01 00:08:51
  TRACK 08 AUDIO
    TITLE "DISC1Track07_08"
    INDEX 01 00:10:19
  TRACK 09 AUDIO
    TITLE "DISC1Track07_09"
    INDEX 01 00:12:23
  TRACK 10 AUDIO
    TITLE "DISC1Track07_10"
    INDEX 01 00:13:74
  TRACK 11 AUDIO
    TITLE "DISC1Track07_11"
    INDEX 01 00:14:12
  TRACK 12 AUDIO
    TITLE "DISC1Track07_12"
    INDEX 01 00:17:38
  TRACK 13 AUDIO
    TITLE "DISC1Track07_13"
    INDEX 01 00:20:62
  TRACK 14 AUDIO
    TITLE "DISC1Track07_14"
    INDEX 01 00:23:58
  TRACK 15 AUDIO
    TITLE "DISC1Track07_15"
    INDEX 01 00:23:70
  TRACK 16 AUDIO
    TITLE "DISC1Track07_16"
    INDEX 01 00:26:63
  TRACK 17 AUDIO
    TITLE "DISC1Track07_17"
    INDEX 01 00:29:71
  TRACK 18 AUDIO
    TITLE "DISC1Track07_18"
    INDEX 01 00:32:55
  TRACK 19 AUDIO
    TITLE "DISC1Track07_19"
    INDEX 01 00:32:71
  TRACK 20 AUDIO
    TITLE "DISC1Track07_20"
    INDEX 01 00:36:12
  TRACK 21 AUDIO
    TITLE "DISC1Track07_21"
    INDEX 01 00:38:58
  TRACK 22 AUDIO
    TITLE "DISC1Track07_22"
    INDEX 01 00:41:03
  TRACK 23 AUDIO
    TITLE "DISC1Track07_23"
    INDEX 01 00:41:17
  TRACK 24 AUDIO
    TITLE "DISC1Track07_24"
    INDEX 01 00:44:57
  TRACK 25 AUDIO
    TITLE "DISC1Track07_25"
    INDEX 01 00:47:61
  TRACK 26 AUDIO
    TITLE "DISC1Track07_26"
    INDEX 01 00:50:40
  TRACK 27 AUDIO
    TITLE "DISC1Track07_27"
    INDEX 01 00:50:53
  TRACK 28 AUDIO
    TITLE "DISC1Track07_28"
    INDEX 01 00:54:57
  TRACK 29 AUDIO
    TITLE "DISC1Track07_29"
    INDEX 01 00:58:68
  TRACK 30 AUDIO
    TITLE "DISC1Track07_30"
    INDEX 01 01:02:54
  TRACK 31 AUDIO
    TITLE "DISC1Track07_31"
    INDEX 01 01:02:70
  TRACK 32 AUDIO
    TITLE "DISC1Track07_32"
    INDEX 01 01:06:54
  TRACK 33 AUDIO
    TITLE "DISC1Track07_33"
    INDEX 01 01:10:21
  TRACK 34 AUDIO
    TITLE "DISC1Track07_34"
    INDEX 01 01:13:31
  TRACK 35 AUDIO
    TITLE "DISC1Track07_35"
    INDEX 01 01:13:41
  TRACK 36 AUDIO
    TITLE "DISC1Track07_36"
    INDEX 01 01:16:08
  TRACK 37 AUDIO
    TITLE "DISC1Track07_37"
    INDEX 01 01:19:51
  TRACK 38 AUDIO
    TITLE "DISC1Track07_38"
    INDEX 01 01:22:63
  TRACK 39 AUDIO
    TITLE "DISC1Track07_39"
    INDEX 01 01:22:73
  TRACK 40 AUDIO
    TITLE "DISC1Track07_40"
    INDEX 01 01:26:18
  TRACK 41 AUDIO
    TITLE "DISC1Track07_41"
    INDEX 01 01:30:25
  TRACK 42 AUDIO
    TITLE "DISC1Track07_42"
    INDEX 01 01:34:02
  TRACK 43 AUDIO
    TITLE "DISC1Track07_43"
    INDEX 01 01:34:15
  TRACK 44 AUDIO
    TITLE "DISC1Track07_44"
    INDEX 01 01:37:61
  TRACK 45 AUDIO
    TITLE "DISC1Track07_45"
    INDEX 01 01:40:63
  TRACK 46 AUDIO
    TITLE "DISC1Track07_46"
    INDEX 01 01:43:36
  TRACK 47 AUDIO
    TITLE "DISC1Track07_47"
    INDEX 01 01:43:52
  TRACK 48 AUDIO
    TITLE "DISC1Track07_48"
    INDEX 01 01:45:17
  TRACK 49 AUDIO
    TITLE "DISC1Track07_49"
    INDEX 01 01:47:43
  TRACK 50 AUDIO
    TITLE "DISC1Track07_50"
    INDEX 01 01:49:44
